<!-- icon666.com - MILLIONS OF FREE VECTOR ICONS --><svg version="1.1" id="Layer_1" xmlns="http://www.w3.org/2000/svg" xmlns:xlink="http://www.w3.org/1999/xlink" x="0px" y="0px" viewBox="0 0 512 512" style="enable-background:new 0 0 512 512;" xml:space="preserve"><g><g><path d="M422.33,57.329h-84.268V18.732C338.062,8.387,329.676,0,319.331,0H192.669c-10.345,0-18.732,8.387-18.732,18.732v38.597 H89.67c-10.345,0-18.732,8.387-18.732,18.732v71.62c0,10.345,8.387,18.732,18.732,18.732h5.506v326.856 c0,10.345,8.387,18.732,18.732,18.732h284.185c10.345,0,18.732-8.387,18.732-18.732V166.412h5.506 c10.345,0,18.732-8.387,18.732-18.732v-71.62C441.062,65.716,432.676,57.329,422.33,57.329z M211.401,37.463L211.401,37.463 h89.198v19.866h-89.198V37.463z M379.361,474.537H132.639v-23.903h246.722V474.537z M379.361,413.17H132.639V166.412h38.301 v205.619c0,10.345,8.387,18.732,18.732,18.732c10.345,0,18.732-8.387,18.732-18.732V166.412h28.869v205.619 c0,10.345,8.387,18.732,18.732,18.732c10.345,0,18.732-8.387,18.732-18.732V166.412h28.861v205.619 c0,10.345,8.387,18.732,18.732,18.732c10.345,0,18.732-8.387,18.732-18.732V166.412h38.3V413.17z M403.6,128.949 c-5.903,0-272.762,0-295.198,0V94.792H403.6V128.949z" fill="#000000" style="fill: rgb(241, 233, 233);"></path></g></g></svg>