<!-- icon666.com - MILLIONS OF FREE VECTOR ICONS --><svg id="Layer_1" enable-background="new 0 0 64 64" viewBox="0 0 64 64" xmlns="http://www.w3.org/2000/svg"><g id="Trash"><path d="m27 50c-1.7 0-3-1.3-3-3v-22c0-1.7 1.3-3 3-3s3 1.3 3 3v22c0 1.7-1.3 3-3 3z" fill="#000000" style="fill: rgb(245, 244, 244);"></path><path d="m37 50c-1.7 0-3-1.3-3-3v-22c0-1.7 1.3-3 3-3s3 1.3 3 3v22c0 1.7-1.3 3-3 3z" fill="#000000" style="fill: rgb(245, 244, 244);"></path><path d="m52 13h-40c-1.7 0-3 1.3-3 3s1.3 3 3 3h1l1.8 35.5c.1 2.5 2.2 4.5 4.6 4.5h25.1c2.5 0 4.5-2 4.6-4.5l1.9-35.5h1c1.7 0 3-1.3 3-3s-1.3-3-3-3zm-8.8 40h-22.4l-1.7-34h25.9z" fill="#000000" style="fill: rgb(245, 244, 244);"></path><path d="m39 11h-14c-1.7 0-3-1.3-3-3s1.3-3 3-3h14c1.7 0 3 1.3 3 3s-1.3 3-3 3z" fill="#000000" style="fill: rgb(245, 244, 244);"></path></g></svg>