<!-- icon666.com - MILLIONS OF FREE VECTOR ICONS --><svg fill="none" viewBox="0 0 24 24" xmlns="http://www.w3.org/2000/svg"><g fill="rgb(0,0,0)"><path d="m2 5c0-1.65685 1.34315-3 3-3h7c1.6569 0 3 1.34315 3 3v2.5c0 .55228-.4477 1-1 1s-1-.44772-1-1v-2.5c0-.55228-.4477-1-1-1h-7c-.55228 0-1 .44772-1 1v14c0 .5523.44772 1 1 1h7c.5523 0 1-.4477 1-1v-2.5c0-.5523.4477-1 1-1s1 .4477 1 1v2.5c0 1.6569-1.3431 3-3 3h-7c-1.65685 0-3-1.3431-3-3z" fill="rgb(0,0,0)" style="fill: rgb(250, 250, 250);"></path><path d="m16 15c0 .3788.214.725.5528.8944s.7442.1329 1.0472-.0944l4-3c.2518-.1889.4-.4852.4-.8s-.1482-.6111-.4-.8l-4-3c-.303-.22726-.7084-.26382-1.0472-.09443s-.5528.51566-.5528.89443v2h-5c-.5523 0-1 .4477-1 1s.4477 1 1 1h5z" fill="rgb(0,0,0)" style="fill: rgb(250, 250, 250);"></path></g></svg>